<svg viewBox="0 0 32 32" fill="none" xmlns="http://www.w3.org/2000/svg">
  <rect width="32" height="32" rx="6" fill="#0a0a0a"/>
  <g transform="translate(4 4)">
    <path
      d="M4 4L8 2L10 6L12 4L14 6L16 2L20 4L19 10L20 14L18 18L16 20L14 22H10L8 20L6 18L4 14L5 10L4 4Z"
      fill="#dc2626"
      opacity="0.3"
    />
    <path
      d="M4 4L8 2L10 6L12 4L14 6L16 2L20 4L19 10L20 14L18 18L16 20L14 22H10L8 20L6 18L4 14L5 10L4 4Z"
      stroke="#dc2626"
      stroke-width="1.5"
      stroke-linejoin="round"
    />
    <circle cx="9" cy="11" r="1.2" fill="#fca5a5"/>
    <circle cx="15" cy="11" r="1.2" fill="#fca5a5"/>
    <path
      d="M11 15L12 16.5L13 15"
      stroke="#fca5a5"
      stroke-width="1.2"
      stroke-linecap="round"
      stroke-linejoin="round"
    />
  </g>
</svg>
